# Blender v2.90.1 OBJ File: 'astr_jog.blend'
# www.blender.org
mtllib stone_axe.mtl
o axe_Cube
v -1.287732 2.039960 0.262667
v -1.337748 2.072336 0.268695
v -1.307447 2.038683 -0.245005
v -1.353713 2.072336 -0.245005
v -1.237717 2.072336 0.256638
v -1.287732 2.104713 0.262667
v -1.261181 2.072336 -0.245005
v -1.307447 2.105989 -0.245005
v -1.307447 2.045954 0.707899
v -1.364574 2.072336 0.707899
v -1.307447 2.098719 0.707899
v -1.250320 2.072336 0.707899
v -1.289453 2.043499 0.868983
v -1.342764 2.072336 0.868983
v -1.289453 2.101174 0.868983
v -1.236141 2.072336 0.868983
v -1.535034 2.073053 0.857215
v -1.535034 2.073053 0.698770
v -1.176950 2.066156 0.777993
v -1.176950 2.079951 0.777993
v -1.407223 2.035491 0.698770
v -1.407223 2.110616 0.698770
v -1.407223 2.035491 0.857215
v -1.407223 2.110616 0.857215
v -1.638988 2.073053 0.777992
v -1.407223 2.110616 0.777992
v -1.407223 2.035491 0.777992
v -1.379819 2.072574 0.698944
v -1.356622 2.104682 0.712862
v -1.367046 2.074667 0.668729
v -1.337828 2.097682 0.691541
v -1.293907 2.108856 0.782132
v -1.262119 2.103012 0.758861
v -1.255113 2.092081 0.838160
v -1.232175 2.089250 0.797400
v -1.235924 2.072574 0.854696
v -1.221328 2.072574 0.804836
v -1.249435 2.072574 0.712747
v -1.259053 2.087617 0.715945
v -1.231440 2.072631 0.754593
v -1.235500 2.091023 0.756756
v -1.315208 2.109128 0.754444
v -1.279343 2.107905 0.768090
v -1.351071 2.107630 0.815755
v -1.315206 2.106196 0.829007
v -1.375783 2.107101 0.851553
v -1.339918 2.106954 0.851552
v -1.383713 2.072574 0.862040
v -1.347848 2.072574 0.858952
v -1.356622 2.037788 0.712862
v -1.337828 2.045635 0.691541
v -1.293907 2.036293 0.782132
v -1.262119 2.042137 0.758861
v -1.255113 2.053068 0.838160
v -1.232175 2.055899 0.797400
v -1.259053 2.057532 0.715945
v -1.235500 2.054125 0.756756
v -1.315208 2.036021 0.754444
v -1.279343 2.037243 0.768090
v -1.351071 2.037518 0.815755
v -1.315206 2.038953 0.829007
v -1.375783 2.038048 0.851553
v -1.339918 2.038195 0.851552
v -1.357488 2.069773 -0.082238
v -1.246116 2.069773 -0.086111
v -1.358949 2.069773 -0.124257
v -1.247577 2.069773 -0.128129
v -1.301802 2.109965 -0.084174
v -1.303263 2.109965 -0.126193
v -1.301802 2.035513 -0.084174
v -1.303263 2.035513 -0.126193
v -1.355880 2.068607 -0.045774
v -1.244461 2.068607 -0.047861
v -1.356667 2.068607 -0.087811
v -1.245248 2.068607 -0.089897
v -1.300171 2.108799 -0.046818
v -1.300958 2.108799 -0.088854
v -1.300171 2.034347 -0.046818
v -1.300958 2.034347 -0.088854
v -1.352271 2.070949 0.001807
v -1.241014 2.070949 -0.004570
v -1.354677 2.070949 -0.040168
v -1.243420 2.070949 -0.046545
v -1.296643 2.111141 -0.001382
v -1.299049 2.111141 -0.043357
v -1.296643 2.036689 -0.001382
v -1.299049 2.036689 -0.043357
v -1.350667 2.072528 0.047965
v -1.239432 2.072528 0.041226
v -1.353209 2.072528 0.005998
v -1.241974 2.072528 -0.000741
v -1.295049 2.112720 0.044596
v -1.297591 2.112720 0.002629
v -1.295049 2.038268 0.044596
v -1.297591 2.038268 0.002629
v -1.349330 2.069773 0.096884
v -1.237996 2.069773 0.092060
v -1.351150 2.069773 0.054879
v -1.239816 2.069773 0.050056
v -1.293663 2.109965 0.094472
v -1.295483 2.109965 0.052468
v -1.293663 2.035513 0.094472
v -1.295483 2.035513 0.052468
v -1.348704 2.072133 0.137120
v -1.237269 2.072133 0.136283
v -1.349020 2.072133 0.095077
v -1.237584 2.072133 0.094240
v -1.292987 2.112325 0.136702
v -1.293302 2.112325 0.094659
v -1.292987 2.037874 0.136702
v -1.293302 2.037874 0.094659
v -1.346769 2.069773 0.182891
v -1.235408 2.069773 0.178715
v -1.348344 2.069773 0.140877
v -1.236983 2.069773 0.136701
v -1.291088 2.109965 0.180803
v -1.292664 2.109965 0.138789
v -1.291088 2.035513 0.180803
v -1.292664 2.035513 0.138789
vt 0.293701 0.456887
vt 0.217440 0.462140
vt 0.198236 0.014586
vt 0.269979 0.014563
vt 0.716924 0.454246
vt 0.643487 0.469262
vt 0.643487 0.419620
vt 0.716924 0.404604
vt 0.145686 0.985062
vt 0.083846 0.985160
vt 0.108706 0.542860
vt 0.175663 0.548006
vt 0.264373 0.844700
vt 0.180777 0.844641
vt 0.319587 0.014926
vt 0.348667 0.452004
vt 0.020593 0.985269
vt 0.040390 0.537726
vt 0.330615 0.845061
vt 0.348667 0.985437
vt 0.288236 0.985076
vt 0.002596 0.155176
vt 0.080379 0.155043
vt 0.157055 0.154920
vt 0.641358 0.404850
vt 0.641358 0.457405
vt 0.572865 0.485943
vt 0.572864 0.433388
vt 0.208837 0.985045
vt 0.031521 0.014799
vt 0.104197 0.014675
vt 0.175663 0.014561
vt 0.998489 0.214957
vt 0.897753 0.206580
vt 0.979990 0.004737
vt 0.998489 0.006275
vt 0.897753 0.206580
vt 0.998489 0.214957
vt 0.926133 0.320527
vt 0.461509 0.208432
vt 0.461489 0.408586
vt 0.354398 0.208420
vt 0.461509 0.208432
vt 0.461660 0.005341
vt 0.568621 0.208444
vt 0.461489 0.408586
vt 0.354398 0.094523
vt 0.979990 0.004737
vt 0.998489 0.006275
vt 0.926133 0.320527
vt 0.568621 0.094547
vt 0.568621 0.208444
vt 0.354398 0.208420
vt 0.354398 0.094523
vt -0.095053 0.909042
vt -0.020608 0.909042
vt -0.020608 0.983487
vt -0.095053 0.983487
vt -0.020608 0.909042
vt -0.020608 0.983487
vt -0.020608 0.909042
vt -0.020608 0.983487
vt -0.020608 0.909042
vt -0.020608 0.983487
vt -0.095053 0.909042
vt -0.020608 0.909042
vt -0.020608 0.983487
vt -0.095053 0.983487
vt -0.020608 0.909042
vt -0.020608 0.983487
vt -0.020608 0.909042
vt -0.020608 0.983487
vt -0.020608 0.909042
vt -0.020608 0.983487
vt -0.020608 0.909042
vt -0.020608 0.983487
vt -0.020608 0.983487
vt -0.020608 0.909042
vt -0.020608 0.983487
vt -0.020608 0.909042
vt -0.020608 0.983487
vt -0.020608 0.909042
vt -0.020608 0.983487
vt -0.020608 0.909042
vt -0.020608 0.983487
vt -0.020608 0.909042
vt -0.020608 0.983487
vt -0.020608 0.909042
vt -0.020608 0.983487
vt -0.020608 0.909042
vt -0.057830 0.909042
vt -0.020608 0.909042
vt -0.020608 0.983487
vt -0.057830 0.983487
vt -0.095053 0.909042
vt -0.095053 0.983487
vt -0.057830 0.909042
vt -0.057830 0.983487
vt -0.057830 0.909042
vt -0.020608 0.909042
vt -0.020608 0.983487
vt -0.057830 0.983487
vt -0.095053 0.909042
vt -0.095053 0.983487
vt -0.057830 0.909042
vt -0.057830 0.983487
vt -0.057830 0.909042
vt -0.020608 0.909042
vt -0.020608 0.983487
vt -0.057830 0.983487
vt -0.095053 0.909042
vt -0.095053 0.983487
vt -0.057830 0.909042
vt -0.057830 0.983487
vt -0.057830 0.909042
vt -0.020608 0.909042
vt -0.020608 0.983487
vt -0.057830 0.983487
vt -0.095053 0.909042
vt -0.095053 0.983487
vt -0.057830 0.909042
vt -0.057830 0.983487
vt -0.057830 0.909042
vt -0.020608 0.909042
vt -0.020608 0.983487
vt -0.057830 0.983487
vt -0.095053 0.909042
vt -0.095053 0.983487
vt -0.057830 0.909042
vt -0.057830 0.983487
vt -0.057830 0.909042
vt -0.020608 0.909042
vt -0.020608 0.983487
vt -0.057830 0.983487
vt -0.095053 0.909042
vt -0.095053 0.983487
vt -0.057830 0.909042
vt -0.057830 0.983487
vt -0.057830 0.909042
vt -0.020608 0.909042
vt -0.020608 0.983487
vt -0.057830 0.983487
vt -0.095053 0.909042
vt -0.095053 0.983487
vt -0.057830 0.909042
vt -0.057830 0.983487
vt 0.568621 0.094547
vn -0.5646 -0.8251 0.0208
vn 0.0000 0.0000 -1.0000
vn 0.5644 0.8252 -0.0231
vn -0.4816 -0.8762 -0.0194
vn 0.5644 -0.8252 -0.0231
vn -0.5646 0.8251 0.0208
vn 0.4466 -0.8932 -0.0514
vn 0.4817 -0.8760 0.0232
vn -0.4816 0.8762 -0.0194
vn 0.4817 0.8760 0.0232
vn -0.0000 0.0000 1.0000
vn -0.4467 -0.8934 0.0484
vn -0.4467 0.8934 0.0484
vn 0.4466 0.8932 -0.0514
vn 0.3253 0.0000 -0.9456
vn 0.1320 -0.9912 0.0000
vn -0.1600 0.9871 0.0000
vn 0.1320 0.9912 0.0000
vn -0.2027 -0.9702 0.1330
vn 0.3253 0.0000 0.9456
vn -0.2027 -0.9702 -0.1330
vn -0.2644 0.8998 -0.3470
vn -0.5220 0.7575 -0.3919
vn 0.0997 0.9805 -0.1693
vn 0.2768 0.9549 0.1072
vn 0.6571 0.7111 0.2500
vn 0.8119 0.4003 -0.4249
vn 0.2204 0.9349 -0.2780
vn 0.0223 0.9990 0.0393
vn 0.0197 0.9997 0.0128
vn 0.0422 0.2419 0.9694
vn -0.5349 -0.7063 -0.4638
vn 0.1233 -0.9793 -0.1608
vn 0.2768 -0.9549 0.1072
vn 0.6571 -0.7111 0.2500
vn 0.8126 -0.3992 -0.4246
vn 0.2204 -0.9349 -0.2780
vn 0.0223 -0.9990 0.0393
vn 0.0197 -0.9997 0.0128
vn 0.0422 -0.2419 0.9694
vn 0.5847 0.8110 -0.0203
vn -0.5847 0.8110 0.0203
vn 0.5235 -0.8519 -0.0182
vn -0.5235 -0.8519 0.0182
vn 0.5849 0.8110 -0.0110
vn -0.5849 0.8110 0.0110
vn 0.5237 -0.8519 -0.0098
vn -0.5237 -0.8519 0.0098
vn 0.5841 0.8110 -0.0335
vn -0.5841 0.8110 0.0335
vn 0.5229 -0.8519 -0.0300
vn -0.5229 -0.8519 0.0300
vn 0.5839 0.8110 -0.0354
vn -0.5839 0.8110 0.0354
vn 0.5228 -0.8519 -0.0317
vn -0.5228 -0.8519 0.0317
vn 0.5845 0.8110 -0.0253
vn -0.5845 0.8110 0.0253
vn 0.5233 -0.8519 -0.0227
vn -0.5233 -0.8519 0.0227
vn 0.5850 0.8110 -0.0044
vn -0.5850 0.8110 0.0044
vn 0.5238 -0.8519 -0.0039
vn -0.5238 -0.8519 0.0039
vn 0.5846 0.8110 -0.0219
vn -0.5846 0.8110 0.0219
vn 0.5234 -0.8519 -0.0196
vn -0.5234 -0.8519 0.0196
vn -0.2644 0.8998 0.3470
usemtl axe
s off
f 1/1/1 2/2/1 4/3/1 3/4/1
f 3/5/2 4/6/2 8/7/2 7/8/2
f 7/9/3 8/10/3 6/11/3 5/12/3
f 2/2/4 1/1/4 9/13/4 10/14/4
f 3/4/5 7/15/5 5/16/5 1/1/5
f 8/10/6 4/17/6 2/18/6 6/11/6
f 9/13/7 12/19/7 16/20/7 13/21/7
f 1/1/8 5/16/8 12/19/8 9/13/8
f 6/11/9 2/18/9 10/22/9 11/23/9
f 5/12/10 6/11/10 11/23/10 12/24/10
f 16/25/11 15/26/11 14/27/11 13/28/11
f 10/14/12 9/13/12 13/21/12 14/29/12
f 11/23/13 10/22/13 14/30/13 15/31/13
f 12/24/14 11/23/14 15/31/14 16/32/14
f 21/33/15 22/34/15 20/35/15 19/36/15
f 23/37/11 24/38/11 17/39/11
f 27/40/16 19/41/16 23/42/16
f 26/43/17 25/44/17 24/45/17
f 20/46/18 26/43/18 24/45/18
f 25/44/19 27/40/19 23/42/19 17/47/19
f 19/48/20 20/49/20 24/38/20 23/37/20
f 18/50/2 22/34/2 21/33/2
f 18/51/21 21/52/21 27/40/21 25/44/21
f 20/46/18 22/53/18 26/43/18
f 22/53/22 18/54/22 25/44/22
f 21/52/16 19/41/16 27/40/16
f 28/55/23 29/56/23 31/57/23 30/58/23
f 31/57/24 29/56/24 32/59/24 33/60/24
f 33/60/25 32/59/25 34/61/25 35/62/25
f 35/62/26 34/61/26 36/63/26 37/64/26
f 38/65/27 39/66/27 41/67/27 40/68/27
f 41/67/28 39/66/28 42/69/28 43/70/28
f 43/70/29 42/69/29 44/71/29 45/72/29
f 45/72/30 44/71/30 46/73/30 47/74/30
f 47/74/31 46/73/31 48/75/31 49/76/31
f 28/55/32 30/58/32 51/77/32 50/78/32
f 51/77/33 53/79/33 52/80/33 50/78/33
f 53/79/34 55/81/34 54/82/34 52/80/34
f 55/81/35 37/64/35 36/63/35 54/82/35
f 38/65/36 40/68/36 57/83/36 56/84/36
f 57/83/37 59/85/37 58/86/37 56/84/37
f 59/85/38 61/87/38 60/88/38 58/86/38
f 61/87/39 63/89/39 62/90/39 60/88/39
f 63/89/40 49/76/40 48/75/40 62/90/40
f 68/91/41 65/92/41 67/93/41 69/94/41
f 64/95/42 68/91/42 69/94/42 66/96/42
f 70/97/43 71/98/43 67/93/43 65/92/43
f 64/95/44 66/96/44 71/98/44 70/97/44
f 76/99/45 73/100/45 75/101/45 77/102/45
f 72/103/46 76/99/46 77/102/46 74/104/46
f 78/105/47 79/106/47 75/101/47 73/100/47
f 72/103/48 74/104/48 79/106/48 78/105/48
f 84/107/49 81/108/49 83/109/49 85/110/49
f 80/111/50 84/107/50 85/110/50 82/112/50
f 86/113/51 87/114/51 83/109/51 81/108/51
f 80/111/52 82/112/52 87/114/52 86/113/52
f 92/115/53 89/116/53 91/117/53 93/118/53
f 88/119/54 92/115/54 93/118/54 90/120/54
f 94/121/55 95/122/55 91/117/55 89/116/55
f 88/119/56 90/120/56 95/122/56 94/121/56
f 100/123/57 97/124/57 99/125/57 101/126/57
f 96/127/58 100/123/58 101/126/58 98/128/58
f 102/129/59 103/130/59 99/125/59 97/124/59
f 96/127/60 98/128/60 103/130/60 102/129/60
f 108/131/61 105/132/61 107/133/61 109/134/61
f 104/135/62 108/131/62 109/134/62 106/136/62
f 110/137/63 111/138/63 107/133/63 105/132/63
f 104/135/64 106/136/64 111/138/64 110/137/64
f 116/139/65 113/140/65 115/141/65 117/142/65
f 112/143/66 116/139/66 117/142/66 114/144/66
f 118/145/67 119/146/67 115/141/67 113/140/67
f 112/143/68 114/144/68 119/146/68 118/145/68
f 25/44/17 26/43/17 22/53/17
f 24/45/69 25/44/69 17/147/69
